Coordinates
version=1
nRows=14
nColumns=24
inDegrees=yes

Units are S.I. units (second, meters, Newtons, ...)
Angles are in degrees.

endheader
time	pelvis_tilt	pelvis_list	pelvis_rotation	pelvis_tx	pelvis_ty	pelvis_tz	hip_flexion_r	hip_adduction_r	hip_rotation_r	knee_angle_r	ankle_angle_r	subtalar_angle_r	mtp_angle_r	hip_flexion_l	hip_adduction_l	hip_rotation_l	knee_angle_l	ankle_angle_l	subtalar_angle_l	mtp_angle_l	lumbar_extension	lumbar_bending	lumbar_rotation
      2.87000000	    -11.71518244	     -3.09325324	      8.14120586	     -1.82998008	     -0.04651312	      0.46057882	     37.20018439	     -2.79779513	     -6.10169111	     -7.42718001	     -3.04992923	     11.29976522	     17.89426495	     -5.44941062	      0.46465384	     17.20032589	    -16.19206761	      8.78036190	     -1.27612137	      0.29913017	      8.55959203	      1.81814686	    -11.05596884
      2.87500000	    -11.81982845	     -3.44400690	      8.16045876	     -1.82125018	     -0.04739587	      0.46107464	     37.28313479	     -2.37780390	     -5.99858423	     -8.06367848	     -3.41409548	     11.01287882	     17.87444770	     -5.33818009	      0.03797575	     16.94877098	    -17.09001760	      8.43899111	     -0.60473425	      0.73947453	      8.83440733	      2.17543934	    -11.12106223
      2.88000000	    -11.93460280	     -3.78575062	      8.14566638	     -1.81243952	     -0.04824258	      0.46168630	     37.36810784	     -1.93682604	     -5.86115926	     -8.71952844	     -3.96189356	     10.65363201	     17.86341405	     -5.19253924	     -0.38714618	     16.60975506	    -18.02190088	      7.99882993	      0.12804613	      1.27667722	      9.12615544	      2.51816861	    -11.14833971
      2.88500000	    -12.05054370	     -4.11563826	      8.09499083	     -1.80359355	     -0.04904937	      0.46242642	     37.45261574	     -1.47368421	     -5.66384464	     -9.38224024	     -4.71678823	     10.17480746	     17.90103047	     -5.01179708	     -0.81049108	     16.16141727	    -18.99403380	      7.44632755	      0.91492493	      1.98932382	      9.41693494	      2.84854818	    -11.13434524
      2.89000000	    -12.19015209	     -4.47424764	      8.00849423	     -1.79467364	     -0.04979095	      0.46322171	     37.54775888	     -0.96644775	     -5.45343789	    -10.00406588	     -5.71276602	      9.68500393	     17.97817968	     -4.77514116	     -1.26803644	     15.66008167	    -20.00226655	      6.79337975	      1.73967428	      2.77956941	      9.74283973	      3.21168898	    -11.08887155
      2.89500000	    -12.33603224	     -4.83559266	      7.87321100	     -1.78573197	     -0.05044026	      0.46414438	     37.64309673	     -0.42084750	     -5.18117005	    -10.58050557	     -6.92751006	      9.12264842	     18.09201154	     -4.49619465	     -1.73921030	     15.07420516	    -21.05086711	      6.01304072	      2.61079379	      3.69071334	     10.07268892	      3.58579157	    -11.00327200
      2.90000000	    -12.44538041	     -5.20584424	      7.66155384	     -1.77673173	     -0.05090760	      0.46517744	     37.67454087	      0.19423285	     -4.79046454	    -11.05211837	     -8.40808667	      8.38186645	     18.48227598	     -4.25683899	     -2.23422478	     14.44172677	    -22.04154350	      4.85551514	      3.27245384	      5.17157750	     10.36292474	      3.99423460	    -10.77828251
      2.90500000	    -12.61801397	     -5.60496503	      7.45942637	     -1.76776264	     -0.05131664	      0.46628876	     37.78200120	      0.82455412	     -4.39517231	    -11.52704165	     -9.86655525	      7.67066388	     18.55561664	     -3.85308831	     -2.77202631	     13.71967348	    -23.18432559	      3.80051148	      4.25918042	      6.35254246	     10.71966840	      4.41046232	    -10.63708200
      2.91000000	    -12.75861781	     -6.03399286	      7.20795276	     -1.75883017	     -0.05157648	      0.46747130	     37.85069976	      1.53015311	     -3.85801846	    -11.96224583	    -11.34561859	      6.80408050	     18.58195239	     -3.43903642	     -3.35567831	     12.95040671	    -24.34492308	      2.49306479	      5.12253723	      7.94302009	     11.02744172	      4.87968407	    -10.43341854
      2.91500000	    -12.96795125	     -6.46892199	      6.95983789	     -1.74994337	     -0.05179629	      0.46874773	     38.00556607	      2.24153227	     -3.28689866	    -12.43090171	    -12.63463174	      5.92014149	     18.30434936	     -2.85341950	     -3.96398367	     12.12529358	    -25.66711787	      1.31236947	      6.36465743	      9.10911399	     11.40214764	      5.33253242	    -10.27868414
      2.92000000	    -13.04866733	     -6.91091633	      6.64150262	     -1.74093683	     -0.05169122	      0.47007808	     37.99067100	      3.04774187	     -2.60702675	    -12.85909718	    -13.82144979	      4.82719427	     17.89240865	     -2.45089826	     -4.60490741	     11.33116188	    -26.77785813	     -0.63282049	      7.01936129	     11.56526177	     11.63982989	      5.83658351	     -9.99034381
      2.92500000	    -13.19867899	     -7.33882919	      6.32473235	     -1.73200706	     -0.05160776	      0.47145707	     38.06795137	      3.84605510	     -1.87915703	    -13.36813216	    -14.69040669	      3.69720287	     17.16595178	     -1.87345607	     -5.23666098	     10.51535697	    -28.05632422	     -2.47457754	      7.92563845	     13.55554338	     11.93551486	      6.31067395	     -9.74272166
      2.93000000	    -13.31949249	     -7.75917206	      6.01121954	     -1.72310227	     -0.05142538	      0.47281989	     38.11466047	      4.65465511	     -1.15194580	    -13.93821655	    -15.22544022	      2.56804144	     16.19111123	     -1.27414464	     -5.87290091	      9.73490228	    -29.35870525	     -4.52699881	      8.75922304	     15.75197009	     12.18712602	      6.78433679	     -9.50200915
      2.93500000	    -13.42331276	     -8.15339082	      5.69865221	     -1.71424444	     -0.05117955	      0.47416065	     38.14752523	      5.45317267	     -0.44693943	    -14.58135571	    -15.42476377	      1.48837449	     15.01842788	     -0.63840440	     -6.48694863	      8.99593500	    -30.69419065	     -6.74682606	      9.51982697	     18.04338579	     12.40545258	      7.23607850	     -9.25359607
